<svg width="100" height="100" viewBox="0 0 24 24" fill="none" xmlns="http://www.w3.org/2000/svg">
  <path d="M21 4.5V19.5C21 20.88 19.88 22 18.5 22C17.87 22 17.31 21.72 16.91 21.25L13 16.9V18C13 19.66 11.66 21 10 21H8C6.34 21 5 19.66 5 18V14H3.5C2.67 14 2 13.33 2 12.5V11.5C2 10.67 2.67 10 3.5 10H5V6C5 4.34 6.34 3 8 3H10C11.66 3 13 4.34 13 6V7.1L16.91 2.75C17.31 2.28 17.87 2 18.5 2C19.88 2 21 3.12 21 4.5ZM8 5C7.45 5 7 5.45 7 6V18C7 18.55 7.45 19 8 19H10C10.55 19 11 18.55 11 18V6C11 5.45 10.55 5 10 5H8ZM19 4.5C19 4.22 18.78 4 18.5 4C18.41 4 18.32 4.04 18.25 4.12L14 8.9V15.1L18.25 19.88C18.32 19.96 18.41 20 18.5 20C18.78 20 19 19.78 19 19.5V4.5ZM4 12V12.5C4 12.78 4.22 13 4.5 13H5V11H4.5C4.22 11 4 11.22 4 11.5V12Z" fill="#000000"/>
</svg>
