<?xml version="1.0" encoding="UTF-8" standalone="no"?>
<!DOCTYPE svg PUBLIC "-//W3C//DTD SVG 1.1//EN" "http://www.w3.org/Graphics/SVG/1.1/DTD/svg11.dtd">
<svg width="100%" height="100%" viewBox="0 0 3000 3000" version="1.1" xmlns="http://www.w3.org/2000/svg" xmlns:xlink="http://www.w3.org/1999/xlink" xml:space="preserve" xmlns:serif="http://www.serif.com/" style="color:#2F4156;fill-rule:evenodd;clip-rule:evenodd;stroke-linejoin:round;stroke-miterlimit:2;">
    <g id="Layer1">
        <path d="M578.422,2109.09C577.967,2108.34 433.071,1898.17 488.547,1335.73C544.023,773.277 603.632,627.016 767.222,551.233C930.813,475.449 1213.49,564.313 1042.5,845.429C871.505,1126.55 440.296,1809.3 662.347,2052.62C884.398,2295.94 958.061,1903.07 1030.17,1679.19C1102.29,1455.32 1225.33,1031.56 1293.87,878.938C1362.42,726.321 1483.84,609.825 1730.28,700.068C1976.73,790.312 2048.51,999.291 1891.04,1299.22C1733.56,1599.15 1509.91,1982.61 1802.25,2235.02C2094.58,2487.44 2270.68,2006.04 2225.66,1708.8C2180.65,1411.55 2142.46,1137.42 2106.44,864.643C2070.42,591.866 2132.05,524.98 2232.48,532.535C2332.91,540.09 2472.54,575.286 2495.44,1008.02C2518.34,1440.75 2470.61,1887.58 2321.99,2144.89C2173.37,2402.21 1871.81,2471.41 1637.05,2474.32C1402.29,2477.22 1140.32,2335.86 1415.49,1884.22C1690.66,1432.58 1797.72,1310.65 1713.13,1256.36C1628.54,1202.07 1550.72,1404.41 1262.75,1805.74C974.78,2207.07 749.707,2393.7 578.422,2109.09Z" fill="currentColor"/>
    </g>
</svg>
